<svg height="500" viewBox="0 0 500 500" width="500" xmlns="http://www.w3.org/2000/svg"><g fill="none" fill-rule="evenodd"><circle cx="250" cy="250" fill="#ffe082" fill-rule="nonzero" r="231.25"/><path d="m152.5 242.5c-3.75 16.25-2.5 21.25 11.25 22.5 2.5 0 10 1.25 12.5 1.25l-2.5 8.75h-82.5l1.25-8.75c2.5 0 8.75-1.25 11.25-1.25 15-2.5 17.5-5 21.25-23.75l17.5-88.75c2.5-15 1.25-16.25-12.5-17.5-2.5 0-6.25 0-8.75 0l1.25-7.5c16.25-2.5 36.25-6.25 53.75-12.5z" fill="#ffc107" fill-rule="nonzero"/><g stroke="#ffc107" stroke-linecap="square" stroke-width="25" transform="translate(131.25 143.75)"><path d="m0 300 165.86754-165.86754c89.42164-89.42164 134.13246-134.13246 134.13246-134.13246"/><path d="m50 312.5c183.333333-183.333333 275-275 275-275"/><path d="m87.5 337.5 262.5-262.5"/></g><path d="m250 500c-137.5 0-250-112.5-250-250s112.5-250 250-250 250 112.5 250 250-112.5 250-250 250zm0-462.5c-117.5 0-212.5 95-212.5 212.5s95 212.5 212.5 212.5 212.5-95 212.5-212.5-95-212.5-212.5-212.5z" fill="#ffc107" fill-rule="nonzero"/></g></svg>